<mxfile host="app.diagrams.net" modified="2024-07-08T07:52:52.363Z" agent="Mozilla/5.0 (Windows NT 10.0; Win64; x64) AppleWebKit/537.36 (KHTML, like Gecko) Chrome/126.0.0.0 Safari/537.36" etag="xrPGlqkojqe9gmgMi1gN" version="24.6.4" type="github" pages="3">
  <diagram name="Page-1" id="l9X8TjzERissme8cilrj">
    <mxGraphModel dx="830" dy="439" grid="1" gridSize="10" guides="1" tooltips="1" connect="1" arrows="1" fold="1" page="1" pageScale="1" pageWidth="827" pageHeight="1169" math="0" shadow="0">
      <root>
        <mxCell id="0" />
        <mxCell id="1" parent="0" />
        <mxCell id="19VDyxM9A0CumnCQ6ZsO-45" value="" style="rounded=0;whiteSpace=wrap;html=1;" vertex="1" parent="1">
          <mxGeometry x="80" y="230" width="90" height="410" as="geometry" />
        </mxCell>
        <mxCell id="19VDyxM9A0CumnCQ6ZsO-39" value="" style="rounded=0;whiteSpace=wrap;html=1;" vertex="1" parent="1">
          <mxGeometry x="180" y="120" width="310" height="90" as="geometry" />
        </mxCell>
        <mxCell id="19VDyxM9A0CumnCQ6ZsO-28" value="Messaging" style="text;html=1;align=center;verticalAlign=middle;whiteSpace=wrap;rounded=0;" vertex="1" parent="1">
          <mxGeometry x="83" y="230" width="60" height="30" as="geometry" />
        </mxCell>
        <mxCell id="19VDyxM9A0CumnCQ6ZsO-31" value="" style="rounded=0;whiteSpace=wrap;html=1;" vertex="1" parent="1">
          <mxGeometry x="180" y="230" width="610" height="120" as="geometry" />
        </mxCell>
        <mxCell id="19VDyxM9A0CumnCQ6ZsO-32" value="PO Component" style="text;html=1;align=center;verticalAlign=middle;whiteSpace=wrap;rounded=0;" vertex="1" parent="1">
          <mxGeometry x="182" y="230" width="88" height="30" as="geometry" />
        </mxCell>
        <mxCell id="19VDyxM9A0CumnCQ6ZsO-33" value="SIA UI" style="rounded=0;whiteSpace=wrap;html=1;" vertex="1" parent="1">
          <mxGeometry x="260" y="135" width="120" height="60" as="geometry" />
        </mxCell>
        <mxCell id="19VDyxM9A0CumnCQ6ZsO-6" value="&lt;div&gt;&lt;font style=&quot;font-size: 12px;&quot;&gt;PO.Gateway.Gf.Bookings.Api&lt;/font&gt;&lt;/div&gt;" style="rounded=0;whiteSpace=wrap;html=1;" vertex="1" parent="1">
          <mxGeometry x="340" y="270" width="170" height="60" as="geometry" />
        </mxCell>
        <mxCell id="19VDyxM9A0CumnCQ6ZsO-35" value="&lt;div&gt;&lt;font style=&quot;font-size: 12px;&quot;&gt;PO Gateway&lt;/font&gt;&lt;/div&gt;" style="rounded=0;whiteSpace=wrap;html=1;" vertex="1" parent="1">
          <mxGeometry x="540" y="270" width="100" height="60" as="geometry" />
        </mxCell>
        <mxCell id="19VDyxM9A0CumnCQ6ZsO-38" value="&lt;div&gt;&lt;font style=&quot;font-size: 12px;&quot;&gt;etc.&lt;/font&gt;&lt;/div&gt;" style="rounded=0;whiteSpace=wrap;html=1;" vertex="1" parent="1">
          <mxGeometry x="670" y="270" width="100" height="60" as="geometry" />
        </mxCell>
        <mxCell id="19VDyxM9A0CumnCQ6ZsO-40" value="SIA UI Service" style="rounded=0;whiteSpace=wrap;html=1;" vertex="1" parent="1">
          <mxGeometry x="190" y="270" width="120" height="60" as="geometry" />
        </mxCell>
        <mxCell id="19VDyxM9A0CumnCQ6ZsO-41" value="UI" style="text;html=1;align=center;verticalAlign=middle;whiteSpace=wrap;rounded=0;" vertex="1" parent="1">
          <mxGeometry x="182" y="120" width="70" height="30" as="geometry" />
        </mxCell>
        <mxCell id="19VDyxM9A0CumnCQ6ZsO-42" value="" style="rounded=0;whiteSpace=wrap;html=1;" vertex="1" parent="1">
          <mxGeometry x="499" y="120" width="291" height="90" as="geometry" />
        </mxCell>
        <mxCell id="19VDyxM9A0CumnCQ6ZsO-43" value="3rd" style="text;html=1;align=center;verticalAlign=middle;whiteSpace=wrap;rounded=0;" vertex="1" parent="1">
          <mxGeometry x="499" y="120" width="70" height="30" as="geometry" />
        </mxCell>
        <mxCell id="19VDyxM9A0CumnCQ6ZsO-44" value="3rd Service" style="rounded=0;whiteSpace=wrap;html=1;" vertex="1" parent="1">
          <mxGeometry x="594" y="135" width="120" height="60" as="geometry" />
        </mxCell>
        <mxCell id="19VDyxM9A0CumnCQ6ZsO-46" value="ESB" style="rounded=0;whiteSpace=wrap;html=1;" vertex="1" parent="1">
          <mxGeometry x="95" y="280" width="60" height="40" as="geometry" />
        </mxCell>
        <mxCell id="19VDyxM9A0CumnCQ6ZsO-47" value="Kafka" style="rounded=0;whiteSpace=wrap;html=1;" vertex="1" parent="1">
          <mxGeometry x="95" y="380" width="60" height="40" as="geometry" />
        </mxCell>
        <mxCell id="19VDyxM9A0CumnCQ6ZsO-48" value="" style="rounded=0;whiteSpace=wrap;html=1;" vertex="1" parent="1">
          <mxGeometry x="180" y="650" width="610" height="90" as="geometry" />
        </mxCell>
        <mxCell id="19VDyxM9A0CumnCQ6ZsO-49" value="Data layer" style="text;html=1;align=center;verticalAlign=middle;whiteSpace=wrap;rounded=0;" vertex="1" parent="1">
          <mxGeometry x="187" y="659" width="60" height="30" as="geometry" />
        </mxCell>
        <mxCell id="19VDyxM9A0CumnCQ6ZsO-51" value="POM" style="shape=cylinder3;whiteSpace=wrap;html=1;boundedLbl=1;backgroundOutline=1;size=15;" vertex="1" parent="1">
          <mxGeometry x="323.75" y="659" width="56.25" height="75" as="geometry" />
        </mxCell>
        <mxCell id="19VDyxM9A0CumnCQ6ZsO-1" value="" style="rounded=0;whiteSpace=wrap;html=1;movable=1;resizable=1;rotatable=1;deletable=1;editable=1;locked=0;connectable=1;" vertex="1" parent="1">
          <mxGeometry x="180" y="360" width="610" height="280" as="geometry" />
        </mxCell>
        <mxCell id="19VDyxM9A0CumnCQ6ZsO-26" value="" style="group" vertex="1" connectable="0" parent="1">
          <mxGeometry x="189.25" y="420" width="200" height="190" as="geometry" />
        </mxCell>
        <mxCell id="19VDyxM9A0CumnCQ6ZsO-4" value="" style="rounded=0;whiteSpace=wrap;html=1;" vertex="1" parent="19VDyxM9A0CumnCQ6ZsO-26">
          <mxGeometry width="200" height="190" as="geometry" />
        </mxCell>
        <mxCell id="19VDyxM9A0CumnCQ6ZsO-5" value="Booking/Draw" style="text;html=1;align=center;verticalAlign=middle;whiteSpace=wrap;rounded=0;" vertex="1" parent="19VDyxM9A0CumnCQ6ZsO-26">
          <mxGeometry x="1" y="2" width="83" height="26" as="geometry" />
        </mxCell>
        <mxCell id="19VDyxM9A0CumnCQ6ZsO-7" value="&lt;a style=&quot;background-color: transparent; box-sizing: border-box; text-decoration-line: none;&quot; href=&quot;https://github.com/ch-robinson-internal/PO.Bookings.Orchestrator.Api&quot; data-turbo-frame=&quot;repo-content-turbo-frame&quot; data-pjax=&quot;#repo-content-pjax-container&quot;&gt;&lt;font style=&quot;font-size: 6px;&quot; color=&quot;#000000&quot;&gt;PO.Bookings.Orchestrator.Api&lt;/font&gt;&lt;/a&gt;" style="rounded=0;whiteSpace=wrap;html=1;" vertex="1" parent="19VDyxM9A0CumnCQ6ZsO-26">
          <mxGeometry x="8.62" y="40" width="182.75" height="40" as="geometry" />
        </mxCell>
        <mxCell id="19VDyxM9A0CumnCQ6ZsO-2" value="PO Blocks" style="text;html=1;align=center;verticalAlign=middle;whiteSpace=wrap;rounded=0;movable=0;resizable=0;rotatable=0;deletable=0;editable=0;locked=1;connectable=0;" vertex="1" parent="1">
          <mxGeometry x="185" y="365" width="60" height="30" as="geometry" />
        </mxCell>
        <mxCell id="19VDyxM9A0CumnCQ6ZsO-11" value="&lt;span style=&quot;font-size: 6px;&quot;&gt;PO.BookingItems.Api&lt;/span&gt;" style="rounded=0;whiteSpace=wrap;html=1;" vertex="1" parent="1">
          <mxGeometry x="310" y="530" width="71.38" height="40" as="geometry" />
        </mxCell>
        <mxCell id="19VDyxM9A0CumnCQ6ZsO-20" value="&lt;span style=&quot;font-size: 6px;&quot;&gt;PO.Transactions.Api&lt;/span&gt;" style="rounded=0;whiteSpace=wrap;html=1;" vertex="1" parent="1">
          <mxGeometry x="198.63" y="530" width="71.37" height="40" as="geometry" />
        </mxCell>
        <mxCell id="19VDyxM9A0CumnCQ6ZsO-23" value="" style="group" vertex="1" connectable="0" parent="1">
          <mxGeometry x="430" y="420" width="330" height="190" as="geometry" />
        </mxCell>
        <mxCell id="19VDyxM9A0CumnCQ6ZsO-21" value="" style="rounded=0;whiteSpace=wrap;html=1;" vertex="1" parent="19VDyxM9A0CumnCQ6ZsO-23">
          <mxGeometry width="330" height="190" as="geometry" />
        </mxCell>
        <mxCell id="19VDyxM9A0CumnCQ6ZsO-22" value="PO" style="text;html=1;align=center;verticalAlign=middle;whiteSpace=wrap;rounded=0;" vertex="1" parent="19VDyxM9A0CumnCQ6ZsO-23">
          <mxGeometry y="2" width="54.449999999999996" height="26" as="geometry" />
        </mxCell>
        <mxCell id="19VDyxM9A0CumnCQ6ZsO-36" value="&lt;a data-pjax=&quot;#repo-content-pjax-container&quot; data-turbo-frame=&quot;repo-content-turbo-frame&quot; href=&quot;https://github.com/ch-robinson-internal/PO.Bookings.Orchestrator.Api&quot; style=&quot;background-color: transparent; box-sizing: border-box; text-decoration-line: none;&quot;&gt;&lt;font color=&quot;#000000&quot; style=&quot;font-size: 6px;&quot;&gt;PO.Orchestrator.Api&lt;/font&gt;&lt;/a&gt;" style="rounded=0;whiteSpace=wrap;html=1;" vertex="1" parent="19VDyxM9A0CumnCQ6ZsO-23">
          <mxGeometry x="14.24" y="40" width="95.76" height="40" as="geometry" />
        </mxCell>
        <mxCell id="19VDyxM9A0CumnCQ6ZsO-37" value="&lt;a style=&quot;background-color: transparent; box-sizing: border-box; text-decoration-line: none;&quot; href=&quot;https://github.com/ch-robinson-internal/PO.Bookings.Orchestrator.Api&quot; data-turbo-frame=&quot;repo-content-turbo-frame&quot; data-pjax=&quot;#repo-content-pjax-container&quot;&gt;&lt;font style=&quot;font-size: 6px;&quot; color=&quot;#000000&quot;&gt;PO.Item.Orchestrator.Api&lt;/font&gt;&lt;/a&gt;" style="rounded=0;whiteSpace=wrap;html=1;" vertex="1" parent="19VDyxM9A0CumnCQ6ZsO-23">
          <mxGeometry x="140" y="40" width="95.76" height="40" as="geometry" />
        </mxCell>
      </root>
    </mxGraphModel>
  </diagram>
  <diagram id="h2WgDwNswVhG8y2vjtXS" name="SIA Init">
    <mxGraphModel dx="1185" dy="627" grid="1" gridSize="10" guides="1" tooltips="1" connect="1" arrows="1" fold="1" page="1" pageScale="1" pageWidth="827" pageHeight="1169" math="0" shadow="0">
      <root>
        <mxCell id="0" />
        <mxCell id="1" parent="0" />
        <mxCell id="Z_Krm-BXWIWRcryShZnD-19" value="SIA Page" style="shape=umlLifeline;perimeter=lifelinePerimeter;whiteSpace=wrap;html=1;container=1;dropTarget=0;collapsible=0;recursiveResize=0;outlineConnect=0;portConstraint=eastwest;newEdgeStyle={&quot;curved&quot;:0,&quot;rounded&quot;:0};" vertex="1" parent="1">
          <mxGeometry x="160" y="100" width="80" height="430" as="geometry" />
        </mxCell>
        <mxCell id="Z_Krm-BXWIWRcryShZnD-27" value="" style="html=1;points=[[0,0,0,0,5],[0,1,0,0,-5],[1,0,0,0,5],[1,1,0,0,-5]];perimeter=orthogonalPerimeter;outlineConnect=0;targetShapes=umlLifeline;portConstraint=eastwest;newEdgeStyle={&quot;curved&quot;:0,&quot;rounded&quot;:0};" vertex="1" parent="Z_Krm-BXWIWRcryShZnD-19">
          <mxGeometry x="35" y="70" width="10" height="360" as="geometry" />
        </mxCell>
        <mxCell id="Z_Krm-BXWIWRcryShZnD-20" value="" style="shape=umlLifeline;perimeter=lifelinePerimeter;whiteSpace=wrap;html=1;container=1;dropTarget=0;collapsible=0;recursiveResize=0;outlineConnect=0;portConstraint=eastwest;newEdgeStyle={&quot;curved&quot;:0,&quot;rounded&quot;:0};participant=umlActor;" vertex="1" parent="1">
          <mxGeometry x="80" y="100" width="20" height="450" as="geometry" />
        </mxCell>
        <mxCell id="Z_Krm-BXWIWRcryShZnD-23" value="" style="html=1;points=[[0,0,0,0,5],[0,1,0,0,-5],[1,0,0,0,5],[1,1,0,0,-5]];perimeter=orthogonalPerimeter;outlineConnect=0;targetShapes=umlLifeline;portConstraint=eastwest;newEdgeStyle={&quot;curved&quot;:0,&quot;rounded&quot;:0};" vertex="1" parent="Z_Krm-BXWIWRcryShZnD-20">
          <mxGeometry x="5" y="60" width="10" height="390" as="geometry" />
        </mxCell>
        <mxCell id="Z_Krm-BXWIWRcryShZnD-21" value="UI Svc" style="shape=umlLifeline;perimeter=lifelinePerimeter;whiteSpace=wrap;html=1;container=1;dropTarget=0;collapsible=0;recursiveResize=0;outlineConnect=0;portConstraint=eastwest;newEdgeStyle={&quot;curved&quot;:0,&quot;rounded&quot;:0};" vertex="1" parent="1">
          <mxGeometry x="321" y="100" width="79" height="420" as="geometry" />
        </mxCell>
        <mxCell id="4yu3IreHkf-JwgQEfnQH-1" value="" style="html=1;points=[[0,0,0,0,5],[0,1,0,0,-5],[1,0,0,0,5],[1,1,0,0,-5]];perimeter=orthogonalPerimeter;outlineConnect=0;targetShapes=umlLifeline;portConstraint=eastwest;newEdgeStyle={&quot;curved&quot;:0,&quot;rounded&quot;:0};" vertex="1" parent="Z_Krm-BXWIWRcryShZnD-21">
          <mxGeometry x="34.5" y="90" width="10" height="280" as="geometry" />
        </mxCell>
        <mxCell id="Z_Krm-BXWIWRcryShZnD-22" value="Commodity Svc" style="shape=umlLifeline;perimeter=lifelinePerimeter;whiteSpace=wrap;html=1;container=1;dropTarget=0;collapsible=0;recursiveResize=0;outlineConnect=0;portConstraint=eastwest;newEdgeStyle={&quot;curved&quot;:0,&quot;rounded&quot;:0};" vertex="1" parent="1">
          <mxGeometry x="480" y="100" width="80" height="420" as="geometry" />
        </mxCell>
        <mxCell id="4yu3IreHkf-JwgQEfnQH-5" value="" style="html=1;points=[[0,0,0,0,5],[0,1,0,0,-5],[1,0,0,0,5],[1,1,0,0,-5]];perimeter=orthogonalPerimeter;outlineConnect=0;targetShapes=umlLifeline;portConstraint=eastwest;newEdgeStyle={&quot;curved&quot;:0,&quot;rounded&quot;:0};" vertex="1" parent="Z_Krm-BXWIWRcryShZnD-22">
          <mxGeometry x="35" y="120" width="10" height="60" as="geometry" />
        </mxCell>
        <mxCell id="Z_Krm-BXWIWRcryShZnD-26" style="edgeStyle=orthogonalEdgeStyle;rounded=0;orthogonalLoop=1;jettySize=auto;html=1;curved=0;" edge="1" parent="1">
          <mxGeometry relative="1" as="geometry">
            <mxPoint x="195" y="179.8" as="targetPoint" />
            <mxPoint x="95" y="179.8" as="sourcePoint" />
            <Array as="points">
              <mxPoint x="170" y="179.8" />
              <mxPoint x="170" y="179.8" />
            </Array>
          </mxGeometry>
        </mxCell>
        <mxCell id="Z_Krm-BXWIWRcryShZnD-28" value="open" style="edgeLabel;html=1;align=center;verticalAlign=middle;resizable=0;points=[];" vertex="1" connectable="0" parent="Z_Krm-BXWIWRcryShZnD-26">
          <mxGeometry x="-0.244" y="-1" relative="1" as="geometry">
            <mxPoint as="offset" />
          </mxGeometry>
        </mxCell>
        <mxCell id="4yu3IreHkf-JwgQEfnQH-2" style="edgeStyle=orthogonalEdgeStyle;rounded=0;orthogonalLoop=1;jettySize=auto;html=1;curved=0;" edge="1" parent="1" target="4yu3IreHkf-JwgQEfnQH-1">
          <mxGeometry relative="1" as="geometry">
            <mxPoint x="205" y="220" as="sourcePoint" />
            <mxPoint x="350" y="220" as="targetPoint" />
            <Array as="points">
              <mxPoint x="205" y="200" />
            </Array>
          </mxGeometry>
        </mxCell>
        <mxCell id="4yu3IreHkf-JwgQEfnQH-3" value="load" style="edgeLabel;html=1;align=center;verticalAlign=middle;resizable=0;points=[];" vertex="1" connectable="0" parent="4yu3IreHkf-JwgQEfnQH-2">
          <mxGeometry x="0.0086" y="1" relative="1" as="geometry">
            <mxPoint as="offset" />
          </mxGeometry>
        </mxCell>
        <mxCell id="4yu3IreHkf-JwgQEfnQH-4" value="Booking&amp;nbsp;&lt;br&gt;Orch Svc" style="shape=umlLifeline;perimeter=lifelinePerimeter;whiteSpace=wrap;html=1;container=1;dropTarget=0;collapsible=0;recursiveResize=0;outlineConnect=0;portConstraint=eastwest;newEdgeStyle={&quot;curved&quot;:0,&quot;rounded&quot;:0};" vertex="1" parent="1">
          <mxGeometry x="640" y="100" width="80" height="420" as="geometry" />
        </mxCell>
        <mxCell id="4yu3IreHkf-JwgQEfnQH-8" value="" style="html=1;points=[[0,0,0,0,5],[0,1,0,0,-5],[1,0,0,0,5],[1,1,0,0,-5]];perimeter=orthogonalPerimeter;outlineConnect=0;targetShapes=umlLifeline;portConstraint=eastwest;newEdgeStyle={&quot;curved&quot;:0,&quot;rounded&quot;:0};" vertex="1" parent="4yu3IreHkf-JwgQEfnQH-4">
          <mxGeometry x="35" y="190" width="10" height="160" as="geometry" />
        </mxCell>
        <mxCell id="IKL-GlxnbROh4bHqFefv-13" value="combine" style="html=1;align=left;spacingLeft=2;endArrow=block;rounded=0;edgeStyle=orthogonalEdgeStyle;curved=0;rounded=0;" edge="1" parent="4yu3IreHkf-JwgQEfnQH-4">
          <mxGeometry x="0.0044" relative="1" as="geometry">
            <mxPoint x="45" y="300" as="sourcePoint" />
            <Array as="points">
              <mxPoint x="75" y="300" />
              <mxPoint x="75" y="330" />
            </Array>
            <mxPoint x="45" y="330" as="targetPoint" />
            <mxPoint as="offset" />
          </mxGeometry>
        </mxCell>
        <mxCell id="4yu3IreHkf-JwgQEfnQH-6" style="edgeStyle=orthogonalEdgeStyle;rounded=0;orthogonalLoop=1;jettySize=auto;html=1;curved=0;" edge="1" parent="1">
          <mxGeometry relative="1" as="geometry">
            <mxPoint x="365.5" y="230" as="sourcePoint" />
            <mxPoint x="515" y="230" as="targetPoint" />
            <Array as="points">
              <mxPoint x="410" y="230" />
              <mxPoint x="410" y="230" />
            </Array>
          </mxGeometry>
        </mxCell>
        <mxCell id="4yu3IreHkf-JwgQEfnQH-7" value="load commodities" style="edgeLabel;html=1;align=center;verticalAlign=middle;resizable=0;points=[];" vertex="1" connectable="0" parent="4yu3IreHkf-JwgQEfnQH-6">
          <mxGeometry x="-0.1746" y="-1" relative="1" as="geometry">
            <mxPoint x="13" y="-1" as="offset" />
          </mxGeometry>
        </mxCell>
        <mxCell id="4yu3IreHkf-JwgQEfnQH-9" style="edgeStyle=orthogonalEdgeStyle;rounded=0;orthogonalLoop=1;jettySize=auto;html=1;curved=0;dashed=1;" edge="1" parent="1" source="4yu3IreHkf-JwgQEfnQH-5" target="4yu3IreHkf-JwgQEfnQH-1">
          <mxGeometry relative="1" as="geometry">
            <mxPoint x="370" y="275" as="targetPoint" />
            <Array as="points">
              <mxPoint x="490" y="260" />
              <mxPoint x="490" y="260" />
            </Array>
          </mxGeometry>
        </mxCell>
        <mxCell id="4yu3IreHkf-JwgQEfnQH-10" value="return data" style="edgeLabel;html=1;align=center;verticalAlign=middle;resizable=0;points=[];" vertex="1" connectable="0" parent="4yu3IreHkf-JwgQEfnQH-9">
          <mxGeometry x="-0.0181" relative="1" as="geometry">
            <mxPoint as="offset" />
          </mxGeometry>
        </mxCell>
        <mxCell id="4yu3IreHkf-JwgQEfnQH-11" style="edgeStyle=orthogonalEdgeStyle;rounded=0;orthogonalLoop=1;jettySize=auto;html=1;curved=0;" edge="1" parent="1">
          <mxGeometry relative="1" as="geometry">
            <mxPoint x="365" y="300" as="sourcePoint" />
            <mxPoint x="679" y="300" as="targetPoint" />
            <Array as="points">
              <mxPoint x="599.5" y="300" />
              <mxPoint x="599.5" y="300" />
            </Array>
          </mxGeometry>
        </mxCell>
        <mxCell id="4yu3IreHkf-JwgQEfnQH-12" value="load draw" style="edgeLabel;html=1;align=center;verticalAlign=middle;resizable=0;points=[];" vertex="1" connectable="0" parent="4yu3IreHkf-JwgQEfnQH-11">
          <mxGeometry x="-0.021" y="1" relative="1" as="geometry">
            <mxPoint as="offset" />
          </mxGeometry>
        </mxCell>
        <mxCell id="4yu3IreHkf-JwgQEfnQH-13" style="edgeStyle=orthogonalEdgeStyle;rounded=0;orthogonalLoop=1;jettySize=auto;html=1;curved=0;dashed=1;" edge="1" parent="1">
          <mxGeometry relative="1" as="geometry">
            <mxPoint x="669.88" y="445" as="sourcePoint" />
            <mxPoint x="365.13" y="445" as="targetPoint" />
            <Array as="points">
              <mxPoint x="674.88" y="445" />
            </Array>
          </mxGeometry>
        </mxCell>
        <mxCell id="4yu3IreHkf-JwgQEfnQH-14" value="return data" style="edgeLabel;html=1;align=center;verticalAlign=middle;resizable=0;points=[];" vertex="1" connectable="0" parent="4yu3IreHkf-JwgQEfnQH-13">
          <mxGeometry x="-0.1112" y="2" relative="1" as="geometry">
            <mxPoint as="offset" />
          </mxGeometry>
        </mxCell>
        <mxCell id="4yu3IreHkf-JwgQEfnQH-15" value="&lt;font style=&quot;font-size: 8px;&quot;&gt;DB to Svc&lt;/font&gt;" style="rounded=1;whiteSpace=wrap;html=1;arcSize=40;fontColor=#000000;fillColor=#ffffc0;strokeColor=#ff0000;" vertex="1" parent="1">
          <mxGeometry x="390" y="170" width="80" height="20" as="geometry" />
        </mxCell>
        <mxCell id="4yu3IreHkf-JwgQEfnQH-16" value="" style="edgeStyle=orthogonalEdgeStyle;html=1;verticalAlign=bottom;endArrow=open;endSize=8;strokeColor=#ff0000;rounded=0;" edge="1" source="4yu3IreHkf-JwgQEfnQH-15" parent="1">
          <mxGeometry relative="1" as="geometry">
            <mxPoint x="430" y="220" as="targetPoint" />
          </mxGeometry>
        </mxCell>
        <mxCell id="4yu3IreHkf-JwgQEfnQH-17" style="edgeStyle=orthogonalEdgeStyle;rounded=0;orthogonalLoop=1;jettySize=auto;html=1;curved=0;dashed=1;" edge="1" parent="1">
          <mxGeometry relative="1" as="geometry">
            <mxPoint x="355.5" y="459" as="sourcePoint" />
            <mxPoint x="200.0999999999999" y="459" as="targetPoint" />
            <Array as="points">
              <mxPoint x="250" y="459" />
              <mxPoint x="250" y="459" />
            </Array>
          </mxGeometry>
        </mxCell>
        <mxCell id="4yu3IreHkf-JwgQEfnQH-18" value="return data" style="edgeLabel;html=1;align=center;verticalAlign=middle;resizable=0;points=[];" vertex="1" connectable="0" parent="4yu3IreHkf-JwgQEfnQH-17">
          <mxGeometry x="0.0197" y="-1" relative="1" as="geometry">
            <mxPoint as="offset" />
          </mxGeometry>
        </mxCell>
        <mxCell id="4yu3IreHkf-JwgQEfnQH-19" style="edgeStyle=orthogonalEdgeStyle;rounded=0;orthogonalLoop=1;jettySize=auto;html=1;curved=0;dashed=1;" edge="1" parent="1">
          <mxGeometry relative="1" as="geometry">
            <mxPoint x="195" y="507" as="sourcePoint" />
            <mxPoint x="95" y="507" as="targetPoint" />
            <Array as="points">
              <mxPoint x="170" y="507" />
              <mxPoint x="170" y="507" />
            </Array>
          </mxGeometry>
        </mxCell>
        <mxCell id="4yu3IreHkf-JwgQEfnQH-20" value="show" style="edgeLabel;html=1;align=center;verticalAlign=middle;resizable=0;points=[];" vertex="1" connectable="0" parent="4yu3IreHkf-JwgQEfnQH-19">
          <mxGeometry x="-0.0709" relative="1" as="geometry">
            <mxPoint as="offset" />
          </mxGeometry>
        </mxCell>
        <mxCell id="4yu3IreHkf-JwgQEfnQH-22" value="render" style="html=1;align=left;spacingLeft=2;endArrow=block;rounded=0;edgeStyle=orthogonalEdgeStyle;curved=0;rounded=0;exitX=1;exitY=0.857;exitDx=0;exitDy=0;exitPerimeter=0;" edge="1" parent="1">
          <mxGeometry relative="1" as="geometry">
            <mxPoint x="205" y="471.00000000000006" as="sourcePoint" />
            <Array as="points">
              <mxPoint x="230" y="471" />
              <mxPoint x="230" y="492" />
            </Array>
            <mxPoint x="205" y="492" as="targetPoint" />
            <mxPoint as="offset" />
          </mxGeometry>
        </mxCell>
        <mxCell id="IKL-GlxnbROh4bHqFefv-1" value="Booking&amp;nbsp;&lt;br&gt;Item Svc" style="shape=umlLifeline;perimeter=lifelinePerimeter;whiteSpace=wrap;html=1;container=1;dropTarget=0;collapsible=0;recursiveResize=0;outlineConnect=0;portConstraint=eastwest;newEdgeStyle={&quot;curved&quot;:0,&quot;rounded&quot;:0};" vertex="1" parent="1">
          <mxGeometry x="800" y="100" width="80" height="420" as="geometry" />
        </mxCell>
        <mxCell id="IKL-GlxnbROh4bHqFefv-2" value="" style="html=1;points=[[0,0,0,0,5],[0,1,0,0,-5],[1,0,0,0,5],[1,1,0,0,-5]];perimeter=orthogonalPerimeter;outlineConnect=0;targetShapes=umlLifeline;portConstraint=eastwest;newEdgeStyle={&quot;curved&quot;:0,&quot;rounded&quot;:0};" vertex="1" parent="IKL-GlxnbROh4bHqFefv-1">
          <mxGeometry x="35" y="200" width="10" height="40" as="geometry" />
        </mxCell>
        <mxCell id="IKL-GlxnbROh4bHqFefv-3" value="PO Transaction API" style="shape=umlLifeline;perimeter=lifelinePerimeter;whiteSpace=wrap;html=1;container=1;dropTarget=0;collapsible=0;recursiveResize=0;outlineConnect=0;portConstraint=eastwest;newEdgeStyle={&quot;curved&quot;:0,&quot;rounded&quot;:0};" vertex="1" parent="1">
          <mxGeometry x="960" y="100" width="80" height="420" as="geometry" />
        </mxCell>
        <mxCell id="IKL-GlxnbROh4bHqFefv-4" value="" style="html=1;points=[[0,0,0,0,5],[0,1,0,0,-5],[1,0,0,0,5],[1,1,0,0,-5]];perimeter=orthogonalPerimeter;outlineConnect=0;targetShapes=umlLifeline;portConstraint=eastwest;newEdgeStyle={&quot;curved&quot;:0,&quot;rounded&quot;:0};" vertex="1" parent="IKL-GlxnbROh4bHqFefv-3">
          <mxGeometry x="35" y="250" width="10" height="70" as="geometry" />
        </mxCell>
        <mxCell id="IKL-GlxnbROh4bHqFefv-5" style="edgeStyle=orthogonalEdgeStyle;rounded=0;orthogonalLoop=1;jettySize=auto;html=1;curved=0;" edge="1" parent="1" source="4yu3IreHkf-JwgQEfnQH-8" target="IKL-GlxnbROh4bHqFefv-1">
          <mxGeometry relative="1" as="geometry">
            <Array as="points">
              <mxPoint x="720" y="310" />
              <mxPoint x="720" y="310" />
            </Array>
          </mxGeometry>
        </mxCell>
        <mxCell id="IKL-GlxnbROh4bHqFefv-6" value="read draw data" style="edgeLabel;html=1;align=center;verticalAlign=middle;resizable=0;points=[];" vertex="1" connectable="0" parent="IKL-GlxnbROh4bHqFefv-5">
          <mxGeometry x="-0.017" relative="1" as="geometry">
            <mxPoint as="offset" />
          </mxGeometry>
        </mxCell>
        <mxCell id="IKL-GlxnbROh4bHqFefv-7" style="edgeStyle=orthogonalEdgeStyle;rounded=0;orthogonalLoop=1;jettySize=auto;html=1;curved=0;dashed=1;" edge="1" parent="1">
          <mxGeometry relative="1" as="geometry">
            <mxPoint x="835" y="330" as="sourcePoint" />
            <mxPoint x="685" y="330" as="targetPoint" />
            <Array as="points">
              <mxPoint x="790" y="330" />
              <mxPoint x="790" y="330" />
            </Array>
          </mxGeometry>
        </mxCell>
        <mxCell id="IKL-GlxnbROh4bHqFefv-14" value="return result" style="edgeLabel;html=1;align=center;verticalAlign=middle;resizable=0;points=[];" vertex="1" connectable="0" parent="IKL-GlxnbROh4bHqFefv-7">
          <mxGeometry x="-0.2293" y="1" relative="1" as="geometry">
            <mxPoint as="offset" />
          </mxGeometry>
        </mxCell>
        <mxCell id="IKL-GlxnbROh4bHqFefv-8" style="edgeStyle=orthogonalEdgeStyle;rounded=0;orthogonalLoop=1;jettySize=auto;html=1;curved=0;" edge="1" parent="1">
          <mxGeometry relative="1" as="geometry">
            <mxPoint x="685" y="360" as="sourcePoint" />
            <mxPoint x="995" y="360" as="targetPoint" />
            <Array as="points">
              <mxPoint x="920" y="360" />
              <mxPoint x="920" y="360" />
            </Array>
          </mxGeometry>
        </mxCell>
        <mxCell id="IKL-GlxnbROh4bHqFefv-9" value="read pendding transaction" style="edgeLabel;html=1;align=center;verticalAlign=middle;resizable=0;points=[];" vertex="1" connectable="0" parent="IKL-GlxnbROh4bHqFefv-8">
          <mxGeometry x="0.0009" relative="1" as="geometry">
            <mxPoint as="offset" />
          </mxGeometry>
        </mxCell>
        <mxCell id="IKL-GlxnbROh4bHqFefv-10" style="edgeStyle=orthogonalEdgeStyle;rounded=0;orthogonalLoop=1;jettySize=auto;html=1;curved=0;dashed=1;" edge="1" parent="1">
          <mxGeometry relative="1" as="geometry">
            <mxPoint x="995" y="385" as="sourcePoint" />
            <mxPoint x="685" y="385" as="targetPoint" />
            <Array as="points">
              <mxPoint x="920" y="385" />
              <mxPoint x="920" y="385" />
            </Array>
          </mxGeometry>
        </mxCell>
        <mxCell id="IKL-GlxnbROh4bHqFefv-11" value="return result" style="edgeLabel;html=1;align=center;verticalAlign=middle;resizable=0;points=[];" vertex="1" connectable="0" parent="IKL-GlxnbROh4bHqFefv-10">
          <mxGeometry x="0.0301" relative="1" as="geometry">
            <mxPoint as="offset" />
          </mxGeometry>
        </mxCell>
      </root>
    </mxGraphModel>
  </diagram>
  <diagram id="CmnNyeVp6TQFfo1xvE5B" name="SIA Save">
    <mxGraphModel dx="1185" dy="627" grid="1" gridSize="10" guides="1" tooltips="1" connect="1" arrows="1" fold="1" page="1" pageScale="1" pageWidth="827" pageHeight="1169" math="0" shadow="0">
      <root>
        <mxCell id="0" />
        <mxCell id="1" parent="0" />
        <mxCell id="5PKfqkAMzm-T8j1K_0CJ-13" style="edgeStyle=orthogonalEdgeStyle;rounded=0;orthogonalLoop=1;jettySize=auto;html=1;curved=0;" edge="1" parent="1">
          <mxGeometry relative="1" as="geometry">
            <mxPoint x="525" y="520" as="sourcePoint" />
            <mxPoint x="639.5" y="520" as="targetPoint" />
            <Array as="points">
              <mxPoint x="540" y="520" />
              <mxPoint x="540" y="520" />
            </Array>
          </mxGeometry>
        </mxCell>
        <mxCell id="5PKfqkAMzm-T8j1K_0CJ-14" value="&lt;font style=&quot;font-size: 7px;&quot;&gt;save&amp;nbsp;&lt;/font&gt;" style="edgeLabel;html=1;align=center;verticalAlign=middle;resizable=0;points=[];" vertex="1" connectable="0" parent="5PKfqkAMzm-T8j1K_0CJ-13">
          <mxGeometry x="0.0869" y="1" relative="1" as="geometry">
            <mxPoint as="offset" />
          </mxGeometry>
        </mxCell>
        <mxCell id="5PKfqkAMzm-T8j1K_0CJ-21" style="edgeStyle=orthogonalEdgeStyle;rounded=0;orthogonalLoop=1;jettySize=auto;html=1;curved=0;dashed=1;" edge="1" parent="1">
          <mxGeometry relative="1" as="geometry">
            <mxPoint x="635" y="640" as="sourcePoint" />
            <mxPoint x="525" y="640" as="targetPoint" />
            <Array as="points">
              <mxPoint x="586" y="640" />
              <mxPoint x="586" y="641" />
              <mxPoint x="530" y="641" />
              <mxPoint x="530" y="640" />
            </Array>
          </mxGeometry>
        </mxCell>
        <mxCell id="5PKfqkAMzm-T8j1K_0CJ-22" value="&lt;font style=&quot;font-size: 7px;&quot;&gt;result&lt;/font&gt;" style="edgeLabel;html=1;align=center;verticalAlign=middle;resizable=0;points=[];" vertex="1" connectable="0" parent="5PKfqkAMzm-T8j1K_0CJ-21">
          <mxGeometry x="-0.0266" y="1" relative="1" as="geometry">
            <mxPoint y="-3" as="offset" />
          </mxGeometry>
        </mxCell>
        <mxCell id="5PKfqkAMzm-T8j1K_0CJ-34" style="edgeStyle=orthogonalEdgeStyle;rounded=0;orthogonalLoop=1;jettySize=auto;html=1;curved=0;" edge="1" parent="1">
          <mxGeometry relative="1" as="geometry">
            <mxPoint x="1005" y="700" as="sourcePoint" />
            <mxPoint x="1115" y="700" as="targetPoint" />
            <Array as="points">
              <mxPoint x="1090" y="700" />
              <mxPoint x="1090" y="700" />
            </Array>
          </mxGeometry>
        </mxCell>
        <mxCell id="5PKfqkAMzm-T8j1K_0CJ-35" value="&lt;font style=&quot;font-size: 7px;&quot;&gt;save draw&lt;/font&gt;" style="edgeLabel;html=1;align=center;verticalAlign=middle;resizable=0;points=[];" vertex="1" connectable="0" parent="5PKfqkAMzm-T8j1K_0CJ-34">
          <mxGeometry x="0.2654" y="-1" relative="1" as="geometry">
            <mxPoint x="-17" y="-3" as="offset" />
          </mxGeometry>
        </mxCell>
        <mxCell id="5PKfqkAMzm-T8j1K_0CJ-36" style="edgeStyle=orthogonalEdgeStyle;rounded=0;orthogonalLoop=1;jettySize=auto;html=1;curved=0;dashed=1;" edge="1" parent="1">
          <mxGeometry relative="1" as="geometry">
            <mxPoint x="1115" y="720" as="sourcePoint" />
            <mxPoint x="1005" y="720" as="targetPoint" />
            <Array as="points">
              <mxPoint x="1030" y="720" />
              <mxPoint x="1030" y="720" />
            </Array>
          </mxGeometry>
        </mxCell>
        <mxCell id="5PKfqkAMzm-T8j1K_0CJ-37" value="&lt;font style=&quot;font-size: 7px;&quot;&gt;return result&lt;/font&gt;" style="edgeLabel;html=1;align=center;verticalAlign=middle;resizable=0;points=[];" vertex="1" connectable="0" parent="5PKfqkAMzm-T8j1K_0CJ-36">
          <mxGeometry x="0.0141" relative="1" as="geometry">
            <mxPoint y="-2" as="offset" />
          </mxGeometry>
        </mxCell>
        <mxCell id="5PKfqkAMzm-T8j1K_0CJ-38" style="edgeStyle=orthogonalEdgeStyle;rounded=0;orthogonalLoop=1;jettySize=auto;html=1;curved=0;dashed=1;" edge="1" parent="1">
          <mxGeometry relative="1" as="geometry">
            <mxPoint x="995" y="739" as="sourcePoint" />
            <mxPoint x="885" y="739" as="targetPoint" />
            <Array as="points">
              <mxPoint x="910" y="739" />
              <mxPoint x="910" y="739" />
            </Array>
          </mxGeometry>
        </mxCell>
        <mxCell id="5PKfqkAMzm-T8j1K_0CJ-39" value="&lt;font style=&quot;font-size: 7px;&quot;&gt;return result&lt;/font&gt;" style="edgeLabel;html=1;align=center;verticalAlign=middle;resizable=0;points=[];" vertex="1" connectable="0" parent="5PKfqkAMzm-T8j1K_0CJ-38">
          <mxGeometry x="0.0141" relative="1" as="geometry">
            <mxPoint y="-2" as="offset" />
          </mxGeometry>
        </mxCell>
        <mxCell id="5PKfqkAMzm-T8j1K_0CJ-40" style="edgeStyle=orthogonalEdgeStyle;rounded=0;orthogonalLoop=1;jettySize=auto;html=1;curved=0;dashed=1;" edge="1" parent="1">
          <mxGeometry relative="1" as="geometry">
            <mxPoint x="875" y="760" as="sourcePoint" />
            <mxPoint x="765" y="760" as="targetPoint" />
            <Array as="points">
              <mxPoint x="790" y="760" />
              <mxPoint x="790" y="760" />
            </Array>
          </mxGeometry>
        </mxCell>
        <mxCell id="5PKfqkAMzm-T8j1K_0CJ-41" value="&lt;font style=&quot;font-size: 7px;&quot;&gt;return result&lt;/font&gt;" style="edgeLabel;html=1;align=center;verticalAlign=middle;resizable=0;points=[];" vertex="1" connectable="0" parent="5PKfqkAMzm-T8j1K_0CJ-40">
          <mxGeometry x="0.0141" relative="1" as="geometry">
            <mxPoint y="-2" as="offset" />
          </mxGeometry>
        </mxCell>
        <mxCell id="hi_Okd1NUa1Whz2LALAA-2" value="" style="group" vertex="1" connectable="0" parent="1">
          <mxGeometry x="160" y="340" width="1000" height="620" as="geometry" />
        </mxCell>
        <mxCell id="E0eoT0kAWw2Ve2l7Fwrp-5" value="" style="group;spacing=1;" vertex="1" connectable="0" parent="hi_Okd1NUa1Whz2LALAA-2">
          <mxGeometry width="400" height="620" as="geometry" />
        </mxCell>
        <mxCell id="E0eoT0kAWw2Ve2l7Fwrp-1" value="&lt;font style=&quot;font-size: 8px;&quot;&gt;UI Svc&lt;/font&gt;" style="shape=umlLifeline;perimeter=lifelinePerimeter;whiteSpace=wrap;html=1;container=1;dropTarget=0;collapsible=0;recursiveResize=0;outlineConnect=0;portConstraint=eastwest;newEdgeStyle={&quot;curved&quot;:0,&quot;rounded&quot;:0};" vertex="1" parent="E0eoT0kAWw2Ve2l7Fwrp-5">
          <mxGeometry x="80" width="80" height="620" as="geometry" />
        </mxCell>
        <mxCell id="E0eoT0kAWw2Ve2l7Fwrp-7" value="" style="html=1;points=[[0,0,0,0,5],[0,1,0,0,-5],[1,0,0,0,5],[1,1,0,0,-5]];perimeter=orthogonalPerimeter;outlineConnect=0;targetShapes=umlLifeline;portConstraint=eastwest;newEdgeStyle={&quot;curved&quot;:0,&quot;rounded&quot;:0};" vertex="1" parent="E0eoT0kAWw2Ve2l7Fwrp-1">
          <mxGeometry x="35" y="88.57" width="10" height="291.43" as="geometry" />
        </mxCell>
        <mxCell id="E0eoT0kAWw2Ve2l7Fwrp-2" value="" style="shape=umlLifeline;perimeter=lifelinePerimeter;whiteSpace=wrap;html=1;container=1;dropTarget=0;collapsible=0;recursiveResize=0;outlineConnect=0;portConstraint=eastwest;newEdgeStyle={&quot;curved&quot;:0,&quot;rounded&quot;:0};participant=umlActor;" vertex="1" parent="E0eoT0kAWw2Ve2l7Fwrp-5">
          <mxGeometry width="20" height="620" as="geometry" />
        </mxCell>
        <mxCell id="E0eoT0kAWw2Ve2l7Fwrp-6" value="" style="html=1;points=[[0,0,0,0,5],[0,1,0,0,-5],[1,0,0,0,5],[1,1,0,0,-5]];perimeter=orthogonalPerimeter;outlineConnect=0;targetShapes=umlLifeline;portConstraint=eastwest;newEdgeStyle={&quot;curved&quot;:0,&quot;rounded&quot;:0};" vertex="1" parent="E0eoT0kAWw2Ve2l7Fwrp-2">
          <mxGeometry x="5" y="70" width="10" height="330" as="geometry" />
        </mxCell>
        <mxCell id="E0eoT0kAWw2Ve2l7Fwrp-3" value="&lt;font style=&quot;font-size: 8px;&quot;&gt;Commodity Svc&lt;/font&gt;" style="shape=umlLifeline;perimeter=lifelinePerimeter;whiteSpace=wrap;html=1;container=1;dropTarget=0;collapsible=0;recursiveResize=0;outlineConnect=0;portConstraint=eastwest;newEdgeStyle={&quot;curved&quot;:0,&quot;rounded&quot;:0};" vertex="1" parent="E0eoT0kAWw2Ve2l7Fwrp-5">
          <mxGeometry x="200" width="80" height="620" as="geometry" />
        </mxCell>
        <mxCell id="E0eoT0kAWw2Ve2l7Fwrp-8" value="" style="html=1;points=[[0,0,0,0,5],[0,1,0,0,-5],[1,0,0,0,5],[1,1,0,0,-5]];perimeter=orthogonalPerimeter;outlineConnect=0;targetShapes=umlLifeline;portConstraint=eastwest;newEdgeStyle={&quot;curved&quot;:0,&quot;rounded&quot;:0};" vertex="1" parent="E0eoT0kAWw2Ve2l7Fwrp-3">
          <mxGeometry x="35" y="110" width="10" height="260" as="geometry" />
        </mxCell>
        <mxCell id="E0eoT0kAWw2Ve2l7Fwrp-4" value="&lt;font style=&quot;font-size: 8px;&quot;&gt;Booking&amp;nbsp;&lt;a style=&quot;background-color: transparent; box-sizing: border-box; text-decoration-line: none;&quot; href=&quot;https://github.com/ch-robinson-internal/PO.Bookings.Orchestrator.Api&quot; data-turbo-frame=&quot;repo-content-turbo-frame&quot; data-pjax=&quot;#repo-content-pjax-container&quot;&gt;&lt;font style=&quot;font-size: 8px;&quot; color=&quot;#000000&quot;&gt;Orchestrator&lt;/font&gt;&lt;/a&gt;&lt;/font&gt;" style="shape=umlLifeline;perimeter=lifelinePerimeter;whiteSpace=wrap;html=1;container=1;dropTarget=0;collapsible=0;recursiveResize=0;outlineConnect=0;portConstraint=eastwest;newEdgeStyle={&quot;curved&quot;:0,&quot;rounded&quot;:0};" vertex="1" parent="E0eoT0kAWw2Ve2l7Fwrp-5">
          <mxGeometry x="320" width="80" height="620" as="geometry" />
        </mxCell>
        <mxCell id="E0eoT0kAWw2Ve2l7Fwrp-9" style="edgeStyle=orthogonalEdgeStyle;rounded=0;orthogonalLoop=1;jettySize=auto;html=1;curved=0;" edge="1" parent="E0eoT0kAWw2Ve2l7Fwrp-5">
          <mxGeometry relative="1" as="geometry">
            <mxPoint x="15" y="118.0952380952381" as="sourcePoint" />
            <mxPoint x="115" y="118.0952380952381" as="targetPoint" />
          </mxGeometry>
        </mxCell>
        <mxCell id="E0eoT0kAWw2Ve2l7Fwrp-10" value="&lt;font style=&quot;font-size: 7px;&quot;&gt;save&lt;/font&gt;" style="edgeLabel;html=1;align=center;verticalAlign=middle;resizable=0;points=[];" vertex="1" connectable="0" parent="E0eoT0kAWw2Ve2l7Fwrp-9">
          <mxGeometry x="-0.26" y="-1" relative="1" as="geometry">
            <mxPoint x="8" y="-3" as="offset" />
          </mxGeometry>
        </mxCell>
        <mxCell id="E0eoT0kAWw2Ve2l7Fwrp-12" style="edgeStyle=orthogonalEdgeStyle;rounded=0;orthogonalLoop=1;jettySize=auto;html=1;curved=0;" edge="1" parent="E0eoT0kAWw2Ve2l7Fwrp-5">
          <mxGeometry relative="1" as="geometry">
            <mxPoint x="125" y="147.61904761904762" as="sourcePoint" />
            <mxPoint x="235" y="147.61904761904762" as="targetPoint" />
          </mxGeometry>
        </mxCell>
        <mxCell id="E0eoT0kAWw2Ve2l7Fwrp-13" value="&lt;font style=&quot;font-size: 7px;&quot;&gt;save shipment&lt;/font&gt;" style="edgeLabel;html=1;align=center;verticalAlign=middle;resizable=0;points=[];" vertex="1" connectable="0" parent="E0eoT0kAWw2Ve2l7Fwrp-12">
          <mxGeometry x="0.0364" y="2" relative="1" as="geometry">
            <mxPoint as="offset" />
          </mxGeometry>
        </mxCell>
        <mxCell id="E0eoT0kAWw2Ve2l7Fwrp-14" value="" style="html=1;points=[[0,0,0,0,5],[0,1,0,0,-5],[1,0,0,0,5],[1,1,0,0,-5]];perimeter=orthogonalPerimeter;outlineConnect=0;targetShapes=umlLifeline;portConstraint=eastwest;newEdgeStyle={&quot;curved&quot;:0,&quot;rounded&quot;:0};" vertex="1" parent="E0eoT0kAWw2Ve2l7Fwrp-5">
          <mxGeometry x="355" y="130" width="10" height="220" as="geometry" />
        </mxCell>
        <mxCell id="E0eoT0kAWw2Ve2l7Fwrp-15" style="edgeStyle=orthogonalEdgeStyle;rounded=0;orthogonalLoop=1;jettySize=auto;html=1;curved=0;" edge="1" parent="E0eoT0kAWw2Ve2l7Fwrp-5" source="E0eoT0kAWw2Ve2l7Fwrp-8" target="E0eoT0kAWw2Ve2l7Fwrp-14">
          <mxGeometry relative="1" as="geometry">
            <Array as="points">
              <mxPoint x="300" y="160" />
              <mxPoint x="300" y="160" />
            </Array>
          </mxGeometry>
        </mxCell>
        <mxCell id="E0eoT0kAWw2Ve2l7Fwrp-16" value="&lt;font style=&quot;font-size: 7px;&quot;&gt;save draw&lt;/font&gt;" style="edgeLabel;html=1;align=center;verticalAlign=middle;resizable=0;points=[];" vertex="1" connectable="0" parent="E0eoT0kAWw2Ve2l7Fwrp-15">
          <mxGeometry x="-0.0303" y="-1" relative="1" as="geometry">
            <mxPoint y="-2" as="offset" />
          </mxGeometry>
        </mxCell>
        <mxCell id="5PKfqkAMzm-T8j1K_0CJ-23" style="edgeStyle=orthogonalEdgeStyle;rounded=0;orthogonalLoop=1;jettySize=auto;html=1;curved=0;dashed=1;" edge="1" parent="E0eoT0kAWw2Ve2l7Fwrp-5">
          <mxGeometry relative="1" as="geometry">
            <mxPoint x="355" y="320" as="sourcePoint" />
            <mxPoint x="245" y="320" as="targetPoint" />
            <Array as="points">
              <mxPoint x="306" y="320" />
              <mxPoint x="306" y="321" />
              <mxPoint x="250" y="321" />
              <mxPoint x="250" y="320" />
            </Array>
          </mxGeometry>
        </mxCell>
        <mxCell id="5PKfqkAMzm-T8j1K_0CJ-24" value="&lt;font style=&quot;font-size: 7px;&quot;&gt;result&lt;/font&gt;" style="edgeLabel;html=1;align=center;verticalAlign=middle;resizable=0;points=[];" vertex="1" connectable="0" parent="5PKfqkAMzm-T8j1K_0CJ-23">
          <mxGeometry x="-0.0266" y="1" relative="1" as="geometry">
            <mxPoint y="-3" as="offset" />
          </mxGeometry>
        </mxCell>
        <mxCell id="5PKfqkAMzm-T8j1K_0CJ-25" style="edgeStyle=orthogonalEdgeStyle;rounded=0;orthogonalLoop=1;jettySize=auto;html=1;curved=0;dashed=1;" edge="1" parent="E0eoT0kAWw2Ve2l7Fwrp-5">
          <mxGeometry relative="1" as="geometry">
            <mxPoint x="234" y="350" as="sourcePoint" />
            <mxPoint x="124" y="350" as="targetPoint" />
            <Array as="points">
              <mxPoint x="185" y="350" />
              <mxPoint x="185" y="351" />
              <mxPoint x="129" y="351" />
              <mxPoint x="129" y="350" />
            </Array>
          </mxGeometry>
        </mxCell>
        <mxCell id="5PKfqkAMzm-T8j1K_0CJ-26" value="&lt;font style=&quot;font-size: 7px;&quot;&gt;result&lt;/font&gt;" style="edgeLabel;html=1;align=center;verticalAlign=middle;resizable=0;points=[];" vertex="1" connectable="0" parent="5PKfqkAMzm-T8j1K_0CJ-25">
          <mxGeometry x="-0.0266" y="1" relative="1" as="geometry">
            <mxPoint y="-3" as="offset" />
          </mxGeometry>
        </mxCell>
        <mxCell id="5PKfqkAMzm-T8j1K_0CJ-27" style="edgeStyle=orthogonalEdgeStyle;rounded=0;orthogonalLoop=1;jettySize=auto;html=1;curved=0;dashed=1;" edge="1" parent="E0eoT0kAWw2Ve2l7Fwrp-5" source="E0eoT0kAWw2Ve2l7Fwrp-7" target="E0eoT0kAWw2Ve2l7Fwrp-6">
          <mxGeometry relative="1" as="geometry">
            <mxPoint x="120" y="370" as="sourcePoint" />
            <mxPoint x="10" y="370" as="targetPoint" />
            <Array as="points">
              <mxPoint x="40" y="370" />
              <mxPoint x="40" y="370" />
            </Array>
          </mxGeometry>
        </mxCell>
        <mxCell id="5PKfqkAMzm-T8j1K_0CJ-28" value="&lt;font style=&quot;font-size: 7px;&quot;&gt;result&lt;/font&gt;" style="edgeLabel;html=1;align=center;verticalAlign=middle;resizable=0;points=[];" vertex="1" connectable="0" parent="5PKfqkAMzm-T8j1K_0CJ-27">
          <mxGeometry x="-0.0266" y="1" relative="1" as="geometry">
            <mxPoint y="-3" as="offset" />
          </mxGeometry>
        </mxCell>
        <mxCell id="hi_Okd1NUa1Whz2LALAA-1" value="&lt;font color=&quot;#ff3333&quot; style=&quot;font-size: 6px;&quot;&gt;Create Container&lt;br&gt;&lt;/font&gt;&lt;div style=&quot;line-height: 60%;&quot;&gt;&lt;span style=&quot;font-size: 6px;&quot;&gt;&lt;b&gt;&lt;font color=&quot;#3399ff&quot;&gt;Save Commodities&lt;/font&gt;&lt;/b&gt;&lt;/span&gt;&lt;/div&gt;&lt;div style=&quot;line-height: 60%;&quot;&gt;&lt;span style=&quot;font-size: 6px;&quot;&gt;&lt;font color=&quot;#ff3333&quot;&gt;Update Shipment&lt;br&gt;PO Audit Complete Flag&lt;/font&gt;&lt;/span&gt;&lt;/div&gt;" style="shape=note;strokeWidth=2;fontSize=14;size=20;whiteSpace=wrap;html=1;fillColor=#fff2cc;strokeColor=#d6b656;fontColor=#666600;" vertex="1" parent="E0eoT0kAWw2Ve2l7Fwrp-5">
          <mxGeometry x="150" y="80" width="68.75" height="50" as="geometry" />
        </mxCell>
        <mxCell id="5PKfqkAMzm-T8j1K_0CJ-1" value="&lt;span style=&quot;font-size: 8px;&quot;&gt;PO Transaction API&lt;/span&gt;" style="shape=umlLifeline;perimeter=lifelinePerimeter;whiteSpace=wrap;html=1;container=1;dropTarget=0;collapsible=0;recursiveResize=0;outlineConnect=0;portConstraint=eastwest;newEdgeStyle={&quot;curved&quot;:0,&quot;rounded&quot;:0};" vertex="1" parent="hi_Okd1NUa1Whz2LALAA-2">
          <mxGeometry x="440" width="80" height="620" as="geometry" />
        </mxCell>
        <mxCell id="5PKfqkAMzm-T8j1K_0CJ-6" value="" style="html=1;points=[[0,0,0,0,5],[0,1,0,0,-5],[1,0,0,0,5],[1,1,0,0,-5]];perimeter=orthogonalPerimeter;outlineConnect=0;targetShapes=umlLifeline;portConstraint=eastwest;newEdgeStyle={&quot;curved&quot;:0,&quot;rounded&quot;:0};" vertex="1" parent="5PKfqkAMzm-T8j1K_0CJ-1">
          <mxGeometry x="35" y="160" width="10" height="160" as="geometry" />
        </mxCell>
        <mxCell id="5PKfqkAMzm-T8j1K_0CJ-18" value="&lt;font style=&quot;font-size: 7px;&quot;&gt;save transaction table&lt;/font&gt;" style="html=1;align=left;spacingLeft=2;endArrow=block;rounded=0;edgeStyle=orthogonalEdgeStyle;curved=0;rounded=0;" edge="1" target="5PKfqkAMzm-T8j1K_0CJ-6" parent="5PKfqkAMzm-T8j1K_0CJ-1">
          <mxGeometry relative="1" as="geometry">
            <mxPoint x="45" y="200" as="sourcePoint" />
            <Array as="points">
              <mxPoint x="75" y="200" />
              <mxPoint x="75" y="230" />
            </Array>
            <mxPoint x="50" y="230" as="targetPoint" />
            <mxPoint as="offset" />
          </mxGeometry>
        </mxCell>
        <mxCell id="5PKfqkAMzm-T8j1K_0CJ-2" value="&lt;span style=&quot;font-size: 8px;&quot;&gt;Rabbit MQ&lt;/span&gt;" style="shape=umlLifeline;perimeter=lifelinePerimeter;whiteSpace=wrap;html=1;container=1;dropTarget=0;collapsible=0;recursiveResize=0;outlineConnect=0;portConstraint=eastwest;newEdgeStyle={&quot;curved&quot;:0,&quot;rounded&quot;:0};" vertex="1" parent="hi_Okd1NUa1Whz2LALAA-2">
          <mxGeometry x="560" width="80" height="620" as="geometry" />
        </mxCell>
        <mxCell id="5PKfqkAMzm-T8j1K_0CJ-7" value="" style="html=1;points=[[0,0,0,0,5],[0,1,0,0,-5],[1,0,0,0,5],[1,1,0,0,-5]];perimeter=orthogonalPerimeter;outlineConnect=0;targetShapes=umlLifeline;portConstraint=eastwest;newEdgeStyle={&quot;curved&quot;:0,&quot;rounded&quot;:0};" vertex="1" parent="5PKfqkAMzm-T8j1K_0CJ-2">
          <mxGeometry x="35" y="240" width="10" height="220" as="geometry" />
        </mxCell>
        <mxCell id="5PKfqkAMzm-T8j1K_0CJ-3" value="&lt;span style=&quot;font-size: 8px;&quot;&gt;Sync Booking PI&lt;/span&gt;" style="shape=umlLifeline;perimeter=lifelinePerimeter;whiteSpace=wrap;html=1;container=1;dropTarget=0;collapsible=0;recursiveResize=0;outlineConnect=0;portConstraint=eastwest;newEdgeStyle={&quot;curved&quot;:0,&quot;rounded&quot;:0};" vertex="1" parent="hi_Okd1NUa1Whz2LALAA-2">
          <mxGeometry x="680" width="80" height="620" as="geometry" />
        </mxCell>
        <mxCell id="5PKfqkAMzm-T8j1K_0CJ-8" value="" style="html=1;points=[[0,0,0,0,5],[0,1,0,0,-5],[1,0,0,0,5],[1,1,0,0,-5]];perimeter=orthogonalPerimeter;outlineConnect=0;targetShapes=umlLifeline;portConstraint=eastwest;newEdgeStyle={&quot;curved&quot;:0,&quot;rounded&quot;:0};" vertex="1" parent="5PKfqkAMzm-T8j1K_0CJ-3">
          <mxGeometry x="35" y="290" width="10" height="140" as="geometry" />
        </mxCell>
        <mxCell id="5PKfqkAMzm-T8j1K_0CJ-4" value="&lt;font style=&quot;font-size: 8px;&quot;&gt;Booking Items&amp;nbsp;&lt;a style=&quot;background-color: transparent; box-sizing: border-box; text-decoration-line: none;&quot; href=&quot;https://github.com/ch-robinson-internal/PO.Bookings.Orchestrator.Api&quot; data-turbo-frame=&quot;repo-content-turbo-frame&quot; data-pjax=&quot;#repo-content-pjax-container&quot;&gt;&lt;font style=&quot;font-size: 8px;&quot; color=&quot;#000000&quot;&gt;Orchestrator&lt;/font&gt;&lt;/a&gt;&lt;/font&gt;" style="shape=umlLifeline;perimeter=lifelinePerimeter;whiteSpace=wrap;html=1;container=1;dropTarget=0;collapsible=0;recursiveResize=0;outlineConnect=0;portConstraint=eastwest;newEdgeStyle={&quot;curved&quot;:0,&quot;rounded&quot;:0};" vertex="1" parent="hi_Okd1NUa1Whz2LALAA-2">
          <mxGeometry x="800" width="80" height="620" as="geometry" />
        </mxCell>
        <mxCell id="5PKfqkAMzm-T8j1K_0CJ-11" value="" style="html=1;points=[[0,0,0,0,5],[0,1,0,0,-5],[1,0,0,0,5],[1,1,0,0,-5]];perimeter=orthogonalPerimeter;outlineConnect=0;targetShapes=umlLifeline;portConstraint=eastwest;newEdgeStyle={&quot;curved&quot;:0,&quot;rounded&quot;:0};" vertex="1" parent="5PKfqkAMzm-T8j1K_0CJ-4">
          <mxGeometry x="35" y="320" width="10" height="90" as="geometry" />
        </mxCell>
        <mxCell id="5PKfqkAMzm-T8j1K_0CJ-5" value="&lt;font style=&quot;font-size: 8px;&quot;&gt;Booking Items Svc&lt;/font&gt;" style="shape=umlLifeline;perimeter=lifelinePerimeter;whiteSpace=wrap;html=1;container=1;dropTarget=0;collapsible=0;recursiveResize=0;outlineConnect=0;portConstraint=eastwest;newEdgeStyle={&quot;curved&quot;:0,&quot;rounded&quot;:0};" vertex="1" parent="hi_Okd1NUa1Whz2LALAA-2">
          <mxGeometry x="920" width="80" height="620" as="geometry" />
        </mxCell>
        <mxCell id="5PKfqkAMzm-T8j1K_0CJ-12" value="" style="html=1;points=[[0,0,0,0,5],[0,1,0,0,-5],[1,0,0,0,5],[1,1,0,0,-5]];perimeter=orthogonalPerimeter;outlineConnect=0;targetShapes=umlLifeline;portConstraint=eastwest;newEdgeStyle={&quot;curved&quot;:0,&quot;rounded&quot;:0};" vertex="1" parent="5PKfqkAMzm-T8j1K_0CJ-5">
          <mxGeometry x="35" y="340" width="10" height="60" as="geometry" />
        </mxCell>
        <mxCell id="5PKfqkAMzm-T8j1K_0CJ-15" style="edgeStyle=orthogonalEdgeStyle;rounded=0;orthogonalLoop=1;jettySize=auto;html=1;curved=0;" edge="1" parent="hi_Okd1NUa1Whz2LALAA-2" source="5PKfqkAMzm-T8j1K_0CJ-6" target="5PKfqkAMzm-T8j1K_0CJ-7">
          <mxGeometry relative="1" as="geometry">
            <mxPoint x="490" y="260" as="sourcePoint" />
            <mxPoint x="589.5" y="260" as="targetPoint" />
            <Array as="points">
              <mxPoint x="590" y="260" />
              <mxPoint x="590" y="260" />
            </Array>
          </mxGeometry>
        </mxCell>
        <mxCell id="5PKfqkAMzm-T8j1K_0CJ-16" value="&lt;font style=&quot;font-size: 7px;&quot;&gt;save draw message&lt;/font&gt;" style="edgeLabel;html=1;align=center;verticalAlign=middle;resizable=0;points=[];" vertex="1" connectable="0" parent="5PKfqkAMzm-T8j1K_0CJ-15">
          <mxGeometry x="0.0869" y="1" relative="1" as="geometry">
            <mxPoint as="offset" />
          </mxGeometry>
        </mxCell>
        <mxCell id="5PKfqkAMzm-T8j1K_0CJ-19" style="edgeStyle=orthogonalEdgeStyle;rounded=0;orthogonalLoop=1;jettySize=auto;html=1;curved=0;dashed=1;" edge="1" parent="hi_Okd1NUa1Whz2LALAA-2" source="5PKfqkAMzm-T8j1K_0CJ-7" target="5PKfqkAMzm-T8j1K_0CJ-6">
          <mxGeometry relative="1" as="geometry">
            <mxPoint x="590" y="280" as="sourcePoint" />
            <mxPoint x="490" y="280" as="targetPoint" />
            <Array as="points">
              <mxPoint x="546" y="280" />
              <mxPoint x="546" y="281" />
              <mxPoint x="490" y="281" />
              <mxPoint x="490" y="280" />
            </Array>
          </mxGeometry>
        </mxCell>
        <mxCell id="5PKfqkAMzm-T8j1K_0CJ-20" value="&lt;font style=&quot;font-size: 7px;&quot;&gt;received&lt;/font&gt;" style="edgeLabel;html=1;align=center;verticalAlign=middle;resizable=0;points=[];" vertex="1" connectable="0" parent="5PKfqkAMzm-T8j1K_0CJ-19">
          <mxGeometry x="-0.0266" y="1" relative="1" as="geometry">
            <mxPoint y="-3" as="offset" />
          </mxGeometry>
        </mxCell>
        <mxCell id="5PKfqkAMzm-T8j1K_0CJ-30" style="edgeStyle=orthogonalEdgeStyle;rounded=0;orthogonalLoop=1;jettySize=auto;html=1;curved=0;" edge="1" parent="hi_Okd1NUa1Whz2LALAA-2" source="5PKfqkAMzm-T8j1K_0CJ-7" target="5PKfqkAMzm-T8j1K_0CJ-3">
          <mxGeometry relative="1" as="geometry">
            <Array as="points">
              <mxPoint x="630" y="310" />
              <mxPoint x="630" y="310" />
            </Array>
          </mxGeometry>
        </mxCell>
        <mxCell id="5PKfqkAMzm-T8j1K_0CJ-31" value="&lt;font style=&quot;font-size: 7px;&quot;&gt;push message&lt;/font&gt;" style="edgeLabel;html=1;align=center;verticalAlign=middle;resizable=0;points=[];" vertex="1" connectable="0" parent="5PKfqkAMzm-T8j1K_0CJ-30">
          <mxGeometry x="0.2654" y="-1" relative="1" as="geometry">
            <mxPoint x="-17" y="-3" as="offset" />
          </mxGeometry>
        </mxCell>
        <mxCell id="5PKfqkAMzm-T8j1K_0CJ-32" style="edgeStyle=orthogonalEdgeStyle;rounded=0;orthogonalLoop=1;jettySize=auto;html=1;curved=0;" edge="1" parent="hi_Okd1NUa1Whz2LALAA-2" source="5PKfqkAMzm-T8j1K_0CJ-8" target="5PKfqkAMzm-T8j1K_0CJ-11">
          <mxGeometry relative="1" as="geometry">
            <mxPoint x="730" y="340" as="sourcePoint" />
            <mxPoint x="830" y="340" as="targetPoint" />
            <Array as="points">
              <mxPoint x="810" y="337" />
              <mxPoint x="810" y="337" />
            </Array>
          </mxGeometry>
        </mxCell>
        <mxCell id="5PKfqkAMzm-T8j1K_0CJ-33" value="&lt;font style=&quot;font-size: 7px;&quot;&gt;save draw&lt;/font&gt;" style="edgeLabel;html=1;align=center;verticalAlign=middle;resizable=0;points=[];" vertex="1" connectable="0" parent="5PKfqkAMzm-T8j1K_0CJ-32">
          <mxGeometry x="0.2654" y="-1" relative="1" as="geometry">
            <mxPoint x="-17" y="-3" as="offset" />
          </mxGeometry>
        </mxCell>
      </root>
    </mxGraphModel>
  </diagram>
</mxfile>
